<svg width="109" height="36" viewBox="0 0 109 36" fill="none" xmlns="http://www.w3.org/2000/svg">
<g clip-path="url(#clip0_97_2536)">
<path d="M37.7335 8.97778C39.9433 8.97778 41.8211 9.6661 43.3668 11.0427C43.717 11.3809 43.9646 11.6466 44.1095 11.8398L44.3269 12.1839C44.3027 12.2202 43.9766 12.4254 43.3487 12.7998C42.7328 13.1742 42.0747 13.5908 41.3744 14.0496C41.157 13.784 40.9396 13.5726 40.7222 13.4156C39.9132 12.7998 38.929 12.4919 37.7697 12.4919H37.6973C36.4293 12.4919 35.415 12.7938 34.6542 13.3975C34.2315 13.7598 34.0202 14.1523 34.0202 14.5749C34.0202 14.8406 34.1349 15.0459 34.3643 15.1908C34.5938 15.384 35.0406 15.5953 35.7048 15.8247C36.6226 16.1267 38.0475 16.4467 39.9796 16.7848C40.6075 16.9297 41.1449 17.0988 41.5917 17.292C42.0143 17.461 42.437 17.6905 42.8596 17.9803C43.0529 18.1131 43.3246 18.3546 43.6748 18.7048C44.5563 19.6709 44.9971 20.7577 44.9971 21.9652V22.0196C44.9971 23.2514 44.5382 24.4046 43.6204 25.4793C43.234 25.8778 42.9563 26.1253 42.7872 26.222C42.3041 26.5601 41.9056 26.7956 41.5917 26.9284C40.3599 27.496 39.0498 27.7797 37.661 27.7797H37.5342C35.7229 27.7797 34.0685 27.3028 32.5711 26.3488C32.2451 26.1314 31.8949 25.8476 31.5205 25.4974C31.1704 25.1593 30.9288 24.8936 30.796 24.7004C30.5545 24.3985 30.3432 24.0846 30.162 23.7585L33.187 22.0196H33.2051L33.35 22.2732C33.4828 22.4785 33.6942 22.72 33.984 22.9978C34.5274 23.5049 35.2036 23.8672 36.0127 24.0846C36.544 24.2053 37.0754 24.2657 37.6067 24.2657C38.6694 24.2657 39.6173 24.0302 40.4505 23.5593C40.6075 23.4747 40.8007 23.3238 41.0302 23.1065C41.3441 22.7321 41.5012 22.3577 41.5012 21.9834C41.5012 21.3192 40.9879 20.7939 39.9614 20.4075C39.6233 20.2867 39.0015 20.1539 38.0958 20.009C36.1516 19.6347 34.7025 19.2422 33.7485 18.8316C33.3379 18.6626 32.9334 18.4452 32.5349 18.1795C31.6171 17.5878 31.0133 16.8331 30.7235 15.9153C30.5786 15.5047 30.5062 15.07 30.5062 14.6112V14.5025C30.5062 13.3553 30.9349 12.2805 31.7922 11.2782C32.1545 10.9039 32.4141 10.6624 32.5711 10.5537C32.9817 10.2518 33.3681 10.0103 33.7304 9.82918C34.938 9.26162 36.2723 8.97778 37.7335 8.97778Z" fill="white"/>
<path d="M48.8625 16.495H57.6476V16.4769C57.4423 15.861 56.9713 15.1606 56.2347 14.3757C55.317 13.5908 54.3147 13.1983 53.2279 13.1983C51.5735 13.1983 50.215 14.0738 49.1523 15.8247L48.8625 16.495ZM52.9924 9.70239H53.5177C55.2807 9.70239 56.9774 10.4088 58.6076 11.8217C59.4046 12.6066 59.954 13.2828 60.256 13.8504C61.1375 15.4082 61.5783 17.0384 61.5783 18.741V19.2845C61.5783 19.6226 61.5539 19.7917 61.5058 19.7917H48.5365C48.8142 21.0837 49.2731 22.0498 49.9131 22.6899C50.8912 23.7404 52.0022 24.2657 53.246 24.2657C54.8159 24.2657 56.1321 23.4747 57.1948 21.8928C57.4 21.4943 57.5208 21.2891 57.557 21.277C59.634 22.2189 60.6847 22.7019 60.7088 22.7261C60.5398 23.1487 60.1594 23.7827 59.5677 24.628C57.7925 26.7171 55.6974 27.7616 53.2822 27.7616H53.2098C50.7221 27.7616 48.5847 26.6567 46.7975 24.4468C45.5658 22.72 44.95 20.8301 44.95 18.7773V18.7048C44.95 15.8791 46.0307 13.4881 48.1923 11.5319C49.7863 10.3122 51.3863 9.70239 52.9924 9.70239Z" fill="white"/>
<path d="M66.5302 18.3969V19.1214C66.5302 19.4596 66.6211 19.9486 66.8021 20.5886C66.9472 20.9871 67.1039 21.3433 67.2734 21.6573C67.4544 21.923 67.7141 22.249 68.0518 22.6354C68.4261 23.0098 68.6858 23.2393 68.8309 23.3238C69.1205 23.517 69.3741 23.674 69.5917 23.7947C70.3525 24.1208 71.0347 24.2838 71.6382 24.2838H71.8742C72.9489 24.2838 73.9633 23.9215 74.9174 23.197C75.0862 23.0762 75.3277 22.8528 75.6416 22.5267C76.2214 21.8505 76.6139 21.1502 76.8188 20.4256C76.9883 19.8701 77.0724 19.3086 77.0724 18.741C77.0724 17.3644 76.62 16.1327 75.7141 15.0459C75.3276 14.6353 75.0923 14.4058 75.0076 14.3575C74.0414 13.5968 72.9727 13.2164 71.8016 13.2164H71.6565C71.0164 13.2164 70.316 13.3854 69.5552 13.7235C69.1809 13.8926 68.7645 14.1824 68.3054 14.593C67.8708 15.0277 67.605 15.3357 67.5087 15.5168C67.3276 15.7945 67.1825 16.0421 67.074 16.2595C66.9655 16.4889 66.8442 16.7908 66.7119 17.1651C66.5906 17.7206 66.5302 18.1312 66.5302 18.3969ZM71.6382 9.72046C73.3897 9.72046 74.9594 10.1491 76.3482 11.0065C76.7225 11.2239 77.1754 11.5741 77.7064 12.0571C78.1532 12.5039 78.4373 12.8118 78.558 12.9809C78.8476 13.3553 79.1073 13.7235 79.3365 14.0858C80.1577 15.5349 80.5686 17.0987 80.5686 18.7773C80.5686 20.7698 79.9528 22.6113 78.7208 24.3019C78.5641 24.5314 78.2502 24.8936 77.7789 25.3887L77.4528 25.6604C75.7623 27.0733 73.8725 27.7797 71.7833 27.7797C70.2617 27.7797 68.8852 27.345 67.6538 26.4755C67.4239 26.3186 67.11 26.0529 66.7119 25.6785L66.5302 25.4793V35.1339H63.053L63.0347 35.1158V10.0646L63.053 10.0465H66.5302V11.9484C66.9655 11.4895 67.2368 11.2299 67.3459 11.1695C67.708 10.8918 68.022 10.6805 68.2878 10.5356C68.6621 10.3303 69.0364 10.1733 69.4107 10.0646C69.6881 9.9801 70.1715 9.87744 70.8597 9.75667C71.0768 9.7446 71.3365 9.73253 71.6382 9.72046Z" fill="white"/>
<path d="M82.6949 0.808594H86.1728L86.1911 0.826707V9.95594H90.6833L90.701 9.9741V13.4519L90.6833 13.47H86.1911V22.2189C86.1911 22.8951 86.4203 23.3479 86.8793 23.5774C87.1933 23.7465 87.5194 23.831 87.8572 23.831C88.3284 23.831 88.9984 23.674 89.8683 23.36L90.0128 23.2876L91.3173 26.5661C91.0272 26.6869 90.5565 26.8439 89.9043 27.0371C89.1313 27.2303 88.4552 27.3269 87.8754 27.3269H87.8395C86.6922 27.3269 85.6174 26.9767 84.6152 26.2763C84.4463 26.1555 84.2226 25.9624 83.9446 25.6967L83.6367 25.2982C83.4435 25.0446 83.2929 24.7971 83.1844 24.5555C82.8583 23.8189 82.6949 23.0823 82.6949 22.3457V13.47H80.1229L80.1046 13.4519V9.9741L80.1229 9.95594H82.6949V0.808594Z" fill="white"/>
<path d="M100.254 9.70239C102.271 9.70239 103.998 10.4692 105.435 12.0028V10.0103L105.489 9.9741H108.913L108.949 10.0103V27.2907L108.913 27.3269H105.489L105.435 27.2907V25.5337C104.082 27.019 102.344 27.7616 100.218 27.7616H100.2C97.5556 27.7616 95.3091 26.6929 93.462 24.5555C92.0849 22.8287 91.3966 20.8906 91.3966 18.741V18.7229C91.3966 16.0663 92.4232 13.7719 94.4764 11.8398C96.1791 10.4149 98.1049 9.70239 100.254 9.70239ZM94.8928 18.7229C94.8928 20.6309 95.7139 22.1947 97.3562 23.4144C98.2737 23.9699 99.1437 24.2476 99.9648 24.2476H100.363C101.522 24.2476 102.645 23.7766 103.732 22.8348C104.867 21.6754 105.435 20.3109 105.435 18.741V18.7229C105.435 16.7908 104.614 15.233 102.971 14.0497C102.066 13.4942 101.172 13.2164 100.29 13.2164H100.001C98.5517 13.2164 97.2416 13.8866 96.07 15.227C95.2854 16.338 94.8928 17.5033 94.8928 18.7229Z" fill="white"/>
<path d="M17.5755 7.80786L12.2171 18.4872L8.57311 19.4636C6.19157 20.1018 3.74363 18.6884 3.10549 16.3069C2.46736 13.9253 3.88068 11.4773 6.26222 10.8392L17.5755 7.80786Z" fill="#6DB1AE"/>
<path d="M6.74353 29.0912L12.1019 18.4118L15.7459 17.4355C18.1274 16.7973 20.5754 18.2106 21.2135 20.5922C21.8517 22.9737 20.4383 25.4217 18.0568 26.0598L6.74353 29.0912Z" fill="white"/>
</g>
<defs>
<clipPath id="clip0_97_2536">
<rect width="109" height="34.3825" fill="white" transform="translate(0 0.808594)"/>
</clipPath>
</defs>
</svg>
