<svg viewBox="0 0 109 35" fill="none" xmlns="http://www.w3.org/2000/svg">
<g clip-path="url(#clip0_3499_61621)">
<path d="M37.7335 8.16919C39.9433 8.16919 41.8211 8.85751 43.3668 10.2342C43.717 10.5723 43.9646 10.838 44.1095 11.0312L44.3269 11.3753C44.3027 11.4116 43.9766 11.6168 43.3487 11.9912C42.7328 12.3656 42.0747 12.7822 41.3744 13.241C41.157 12.9754 40.9396 12.764 40.7222 12.607C39.9132 11.9912 38.929 11.6833 37.7697 11.6833H37.6973C36.4293 11.6833 35.415 11.9852 34.6542 12.5889C34.2315 12.9512 34.0202 13.3437 34.0202 13.7664C34.0202 14.032 34.1349 14.2373 34.3643 14.3822C34.5938 14.5754 35.0406 14.7867 35.7048 15.0161C36.6226 15.3181 38.0475 15.6381 39.9796 15.9762C40.6075 16.1211 41.1449 16.2902 41.5917 16.4834C42.0143 16.6524 42.437 16.8819 42.8596 17.1717C43.0529 17.3045 43.3246 17.5461 43.6748 17.8962C44.5563 18.8623 44.9971 19.9491 44.9971 21.1566V21.211C44.9971 22.4428 44.5382 23.596 43.6204 24.6707C43.234 25.0692 42.9563 25.3168 42.7872 25.4134C42.3041 25.7515 41.9056 25.987 41.5917 26.1198C40.3599 26.6874 39.0498 26.9711 37.661 26.9711H37.5342C35.7229 26.9711 34.0685 26.4942 32.5711 25.5402C32.2451 25.3228 31.8949 25.039 31.5205 24.6888C31.1704 24.3507 30.9288 24.085 30.796 23.8918C30.5545 23.5899 30.3432 23.276 30.162 22.9499L33.187 21.211H33.2051L33.35 21.4646C33.4828 21.6699 33.6942 21.9114 33.984 22.1892C34.5274 22.6963 35.2036 23.0586 36.0127 23.276C36.544 23.3967 37.0754 23.4571 37.6067 23.4571C38.6694 23.4571 39.6173 23.2216 40.4505 22.7507C40.6075 22.6661 40.8007 22.5152 41.0302 22.2979C41.3441 21.9235 41.5012 21.5491 41.5012 21.1748C41.5012 20.5106 40.9879 19.9853 39.9614 19.5989C39.6233 19.4781 39.0015 19.3453 38.0958 19.2004C36.1516 18.8261 34.7025 18.4336 33.7485 18.023C33.3379 17.854 32.9334 17.6366 32.5349 17.3709C31.6171 16.7792 31.0133 16.0245 30.7235 15.1067C30.5786 14.6961 30.5062 14.2614 30.5062 13.8026V13.6939C30.5062 12.5467 30.9349 11.4719 31.7922 10.4697C32.1545 10.0953 32.4141 9.85381 32.5711 9.74512C32.9817 9.44323 33.3681 9.2017 33.7304 9.02058C34.938 8.45303 36.2723 8.16919 37.7335 8.16919Z" fill="#061820"/>
<path d="M48.8625 15.6864H57.6476V15.6683C57.4423 15.0524 56.9713 14.352 56.2347 13.5671C55.317 12.7822 54.3147 12.3897 53.2279 12.3897C51.5735 12.3897 50.215 13.2652 49.1523 15.0161L48.8625 15.6864ZM52.9924 8.8938H53.5177C55.2807 8.8938 56.9774 9.60023 58.6076 11.0131C59.4046 11.798 59.954 12.4742 60.256 13.0418C61.1375 14.5996 61.5783 16.2298 61.5783 17.9324V18.4759C61.5783 18.814 61.5539 18.9831 61.5058 18.9831H48.5365C48.8142 20.2752 49.2731 21.2412 49.9131 21.8813C50.8912 22.9318 52.0022 23.4571 53.246 23.4571C54.8159 23.4571 56.1321 22.6661 57.1948 21.0842C57.4 20.6857 57.5208 20.4805 57.557 20.4684C59.634 21.4103 60.6847 21.8933 60.7088 21.9175C60.5398 22.3401 60.1594 22.9741 59.5677 23.8194C57.7925 25.9085 55.6974 26.953 53.2822 26.953H53.2098C50.7221 26.953 48.5847 25.8481 46.7975 23.6382C45.5658 21.9114 44.95 20.0216 44.95 17.9687V17.8962C44.95 15.0705 46.0307 12.6795 48.1923 10.7233C49.7863 9.5036 51.3863 8.8938 52.9924 8.8938Z" fill="#061820"/>
<path d="M66.5302 17.5883V18.3128C66.5302 18.651 66.6211 19.14 66.8021 19.7801C66.9472 20.1785 67.1039 20.5348 67.2734 20.8487C67.4544 21.1144 67.7141 21.4404 68.0518 21.8269C68.4261 22.2012 68.6858 22.4307 68.8309 22.5152C69.1205 22.7084 69.3741 22.8654 69.5917 22.9862C70.3525 23.3122 71.0347 23.4752 71.6382 23.4752H71.8742C72.9489 23.4752 73.9633 23.1129 74.9174 22.3884C75.0862 22.2676 75.3277 22.0443 75.6416 21.7182C76.2214 21.042 76.6139 20.3416 76.8188 19.617C76.9883 19.0615 77.0724 18.5 77.0724 17.9324C77.0724 16.5559 76.62 15.3241 75.7141 14.2373C75.3276 13.8267 75.0923 13.5972 75.0076 13.549C74.0414 12.7882 72.9727 12.4078 71.8016 12.4078H71.6565C71.0164 12.4078 70.316 12.5769 69.5552 12.915C69.1809 13.0841 68.7645 13.3739 68.3054 13.7845C67.8708 14.2192 67.605 14.5271 67.5087 14.7082C67.3276 14.986 67.1825 15.2335 67.074 15.4509C66.9655 15.6803 66.8442 15.9822 66.7119 16.3566C66.5906 16.9121 66.5302 17.3226 66.5302 17.5883ZM71.6382 8.9119C73.3897 8.9119 74.9594 9.34058 76.3482 10.1979C76.7225 10.4153 77.1754 10.7655 77.7064 11.2486C78.1532 11.6954 78.4373 12.0033 78.558 12.1723C78.8476 12.5467 79.1073 12.915 79.3365 13.2773C80.1577 14.7263 80.5686 16.2902 80.5686 17.9687C80.5686 19.9612 79.9528 21.8027 78.7208 23.4933C78.5641 23.7228 78.2502 24.085 77.7789 24.5802L77.4528 24.8519C75.7623 26.2647 73.8725 26.9711 71.7833 26.9711C70.2617 26.9711 68.8852 26.5364 67.6538 25.667C67.4239 25.51 67.11 25.2443 66.7119 24.87L66.5302 24.6707V34.3253H63.053L63.0347 34.3072V9.25603L63.053 9.23792H66.5302V11.1399C66.9655 10.681 67.2368 10.4214 67.3459 10.361C67.708 10.0832 68.022 9.87192 68.2878 9.72702C68.6621 9.5217 69.0364 9.36472 69.4107 9.25603C69.6881 9.17153 70.1715 9.06887 70.8597 8.94811C71.0768 8.93604 71.3365 8.92397 71.6382 8.9119Z" fill="#061820"/>
<path d="M82.6949 0H86.1728L86.1911 0.0181136V9.14734H90.6833L90.701 9.16551V12.6433L90.6833 12.6614H86.1911V21.4103C86.1911 22.0865 86.4203 22.5393 86.8793 22.7688C87.1933 22.9379 87.5194 23.0224 87.8572 23.0224C88.3284 23.0224 88.9984 22.8654 89.8683 22.5514L90.0128 22.479L91.3173 25.7575C91.0272 25.8783 90.5565 26.0353 89.9043 26.2285C89.1313 26.4217 88.4552 26.5183 87.8754 26.5183H87.8395C86.6922 26.5183 85.6174 26.1681 84.6152 25.4677C84.4463 25.347 84.2226 25.1538 83.9446 24.8881L83.6367 24.4896C83.4435 24.236 83.2929 23.9885 83.1844 23.7469C82.8583 23.0103 82.6949 22.2737 82.6949 21.5371V12.6614H80.1229L80.1046 12.6433V9.16551L80.1229 9.14734H82.6949V0Z" fill="#061820"/>
<path d="M100.254 8.8938C102.271 8.8938 103.998 9.66058 105.435 11.1942V9.20172L105.489 9.16551H108.913L108.949 9.20172V26.4821L108.913 26.5183H105.489L105.435 26.4821V24.7251C104.082 26.2104 102.344 26.953 100.218 26.953H100.2C97.5556 26.953 95.3091 25.8843 93.462 23.7469C92.0849 22.0201 91.3966 20.082 91.3966 17.9324V17.9143C91.3966 15.2577 92.4232 12.9633 94.4764 11.0312C96.1791 9.60626 98.1049 8.8938 100.254 8.8938ZM94.8928 17.9143C94.8928 19.8223 95.7139 21.3861 97.3562 22.6058C98.2737 23.1613 99.1437 23.439 99.9648 23.439H100.363C101.522 23.439 102.645 22.968 103.732 22.0262C104.867 20.8669 105.435 19.5023 105.435 17.9324V17.9143C105.435 15.9822 104.614 14.4245 102.971 13.2411C102.066 12.6856 101.172 12.4078 100.29 12.4078H100.001C98.5517 12.4078 97.2416 13.078 96.07 14.4184C95.2854 15.5294 94.8928 16.6947 94.8928 17.9143Z" fill="#061820"/>
<path d="M17.5755 6.99933L12.2171 17.6786L8.57311 18.6551C6.19157 19.2932 3.74363 17.8799 3.10549 15.4983C2.46736 13.1167 3.88068 10.6688 6.26222 10.0307L17.5755 6.99933Z" fill="#6DB1AE"/>
<path d="M6.74353 28.2826L12.1019 17.6033L15.7459 16.6269C18.1274 15.9887 20.5754 17.4021 21.2135 19.7836C21.8517 22.1652 20.4383 24.6132 18.0568 25.2512L6.74353 28.2826Z" fill="#061820"/>
</g>
<defs>
<clipPath id="clip0_3499_61621">
<rect width="109" height="34.3825" fill="white"/>
</clipPath>
</defs>
</svg>
